<?xml version="1.0" encoding="UTF-8" standalone="no"?>
<!-- Created with Inkscape (http://www.inkscape.org/) -->

<svg
   width="32"
   height="32"
   viewBox="0 0 32 32"
   version="1.1"
   id="svg1"
   xmlns="http://www.w3.org/2000/svg"
   xmlns:svg="http://www.w3.org/2000/svg">
  <defs
     id="defs1" />
  <g
     id="layer1">
    <path
       style="fill:#ff0000;fill-opacity:1;stroke:#ff0000"
       id="path2"
       d="M 14.049126,4.9815626 7.3146693,8.925675 0.58021355,12.869788 0.53174032,5.0655213 0.48326614,-2.738745 7.266196,1.1214093 Z"
       transform="matrix(1.4602541,0.01367753,-0.01194864,1.2683979,5.0815537,9.5976316)" />
    <path
       style="fill:#ffffff;fill-opacity:1;stroke:#2b0000"
       d="m 16.511894,15.784258 c -0.01866,-0.01866 -0.03237,-0.04417 -0.05597,-0.05597 -0.01669,-0.0083 -0.04278,0.01319 -0.05597,0 -0.01319,-0.01319 0.01319,-0.04278 0,-0.05597 -0.02638,-0.02639 -0.08555,0.02639 -0.111945,0 -0.01319,-0.01319 0.01319,-0.04278 0,-0.05597 -0.01319,-0.01319 -0.04278,0.01319 -0.05597,0 -0.11581,-0.115846 0.176974,0.0045 -0.05597,-0.111946 -0.01668,-0.0083 -0.04278,0.01319 -0.05597,0 -0.0295,-0.02951 0.05491,-0.117545 -0.05597,-0.111945 -0.03472,-0.02314 -0.07724,-0.03283 -0.111946,-0.05597 -0.02195,-0.01463 -0.03402,-0.04133 -0.05597,-0.05597 -0.03472,-0.02314 -0.07723,-0.03283 -0.111945,-0.05597 -0.0377,-0.02513 -0.254734,-0.242163 -0.279864,-0.279863 -0.29852,-0.447781 0.205233,0.205233 -0.167917,-0.167918 -0.01319,-0.01319 0.01319,-0.04278 0,-0.05597 -0.02951,-0.0295 -0.08245,-0.02647 -0.111946,-0.05597 -0.0295,-0.02951 -0.03094,-0.07856 -0.05597,-0.111945 -0.06333,-0.08443 -0.160561,-0.13946 -0.223891,-0.22389 -0.02503,-0.03338 -0.03283,-0.07724 -0.05597,-0.111946 -0.05408,-0.08112 -0.140461,-0.126198 -0.223891,-0.167918 -0.03731,-0.01866 -0.08244,-0.02647 -0.111945,-0.05597 -0.0295,-0.02951 -0.02647,-0.08244 -0.05597,-0.111945 -0.059,-0.05901 -0.15446,-0.06567 -0.22389,-0.111946 -0.02195,-0.01463 -0.03237,-0.04417 -0.05597,-0.05597 -0.05277,-0.02638 -0.111947,-0.03731 -0.167917,-0.05597 -0.05597,-0.01865 -0.109718,-0.04627 -0.167918,-0.05597 -0.05521,-0.0092 -0.111948,0 -0.167918,0 -0.186576,0 -0.373151,0 -0.559726,0 -0.174545,0 -0.457092,-0.01762 -0.615699,0 -0.07646,0.0085 -0.149261,0.03731 -0.223891,0.05597 -0.143808,0.03596 -0.361635,0.09419 -0.503753,0.111945 -0.05554,0.0069 -0.113028,-0.01098 -0.167918,0 -0.0409,0.0082 -0.07321,0.04048 -0.111945,0.05597 -0.109561,0.04383 -0.227376,0.06546 -0.335836,0.111945 -0.07669,0.03286 -0.1472,0.07907 -0.22389,0.111945 -0.05423,0.02324 -0.113688,0.03273 -0.167918,0.05597 -0.07669,0.03287 -0.149261,0.07464 -0.223891,0.111945 -0.07463,0.03732 -0.15313,0.06773 -0.22389,0.111946 -0.07911,0.04944 -0.14798,0.113697 -0.22389,0.167917 -0.109482,0.0782 -0.232479,0.137761 -0.3358366,0.223891 -0.06081,0.05068 -0.1035048,0.121908 -0.1679178,0.167918 -0.067897,0.04849 -0.1531345,0.06772 -0.2238905,0.111945 -0.079108,0.04944 -0.1428944,0.121638 -0.2238904,0.167918 -0.051227,0.02927 -0.1173259,0.02561 -0.1679179,0.05597 -0.279863,0.167918 0,0.05597 -0.1679178,0.167918 -0.3095187,0.206343 0.1785639,-0.234536 -0.3358357,0.279863 0.055973,0.111945 0.095171,0.23399 0.1679179,0.335836 0.088363,0.123709 0.088235,0.02941 0.1679178,0.05597 0.039579,0.01319 0.077232,0.03283 0.1119452,0.05597 0.021954,0.01464 0.034018,0.04134 0.055973,0.05597 0.034713,0.02314 0.07463,0.03732 0.1119453,0.05597 0.037315,0.01866 0.072367,0.04278 0.1119452,0.05597 0.1666211,0.05554 -0.1148449,-0.132536 0.1679178,0.05597 0.1856378,0.185637 -0.052771,-0.02639 0.1119453,0.05597 0.0236,0.0118 0.030941,0.04763 0.055973,0.05597 0.0354,0.0118 0.076545,-0.0118 0.1119452,0 0.025032,0.0083 0.034018,0.04134 0.055973,0.05597 0.034713,0.02314 0.07321,0.04048 0.1119453,0.05597 0.1410405,0.05642 0.2507677,0.05553 0.3918087,0.111945 0.114673,0.04587 0.218753,0.128891 0.335835,0.167918 0.0177,0.0059 0.03929,-0.0083 0.05597,0 0.0236,0.0118 0.03094,0.04763 0.05597,0.05597 0.0354,0.0118 0.07654,-0.0118 0.111945,0 0.02503,0.0083 0.03237,0.04417 0.05597,0.05597 0.01669,0.0083 0.03827,-0.0059 0.05597,0 0.07916,0.02639 0.146419,0.08096 0.223891,0.111946 0.05478,0.02191 0.113137,0.03406 0.167917,0.05597 0.03874,0.01549 0.07463,0.03732 0.111946,0.05597 0.07463,0.01866 0.150911,0.03165 0.22389,0.05597 0.03958,0.01319 0.07104,0.04779 0.111945,0.05597 0.05489,0.01098 0.113033,-0.01098 0.167918,0 0.08182,0.01636 0.142943,0.09171 0.223891,0.111945 0.0362,0.0091 0.07463,0 0.111945,0 0.111945,0 0.225413,-0.0184 0.335836,0 0.0582,0.0097 0.10972,0.04627 0.167917,0.05597 0.05521,0.0092 0.111946,0 0.167918,0 0.09329,0 0.186576,0 0.279863,0 0.09329,0 0.186576,0 0.279863,0 0.09329,0 0.187146,0.0103 0.279863,0 0.313003,-0.03478 0.126466,-0.05888 0.391809,-0.111945 0.0622,-0.01244 0.161403,0.02083 0.22389,0 0.03958,-0.01319 0.07147,-0.04585 0.111945,-0.05597 0.0362,-0.009 0.07536,0.0073 0.111946,0 0.245499,-0.0491 0.09034,-0.06284 0.335835,-0.111945 0.03659,-0.0073 0.07463,0 0.111946,0 0.03732,-0.01866 0.07237,-0.04278 0.111945,-0.05597 0.0177,-0.0059 0.03929,0.0083 0.05597,0 0.0236,-0.0118 0.03237,-0.04417 0.05597,-0.05597 0.137858,-0.06893 -0.05053,0.162473 0.167918,-0.05597 0.0295,-0.0295 0.02126,-0.0888 0.05597,-0.111945 0.03105,-0.0207 0.07857,0.01669 0.111946,0 0.0472,-0.0236 0.06973,-0.08028 0.111945,-0.111945 0.03338,-0.02503 0.08244,-0.02647 0.111945,-0.05597 0.115809,-0.115809 -0.176972,0.0045 0.05597,-0.111945 0.01669,-0.0083 0.03929,0.0083 0.05597,0 0.06717,-0.03358 0.100751,-0.134335 0.167918,-0.167918 0.01669,-0.0083 0.03929,0.0083 0.05597,0 0.01486,-0.0074 0.160487,-0.153057 0.167918,-0.167918 0.0083,-0.01669 -0.01319,-0.04278 0,-0.05597 0.01319,-0.01319 0.04278,0.01319 0.05597,0 0.01319,-0.01319 -0.0083,-0.03928 0,-0.05597 0.0118,-0.0236 0.04417,-0.03237 0.05597,-0.05597 0.0083,-0.01669 -0.01319,-0.04278 0,-0.05597 0.03344,-0.03344 0.111957,0.06049 0.111945,-0.05597 -7e-6,-0.07694 -0.03733,-0.149273 -0.056,-0.22391 z"
       id="path7" />
    <ellipse
       style="fill:#000000;fill-opacity:1;stroke:#800000"
       id="path8"
       cx="12.873702"
       cy="15.504414"
       rx="1.1754249"
       ry="1.1194522" />
    <path
       style="fill:none;fill-opacity:1;stroke:#000000;stroke-width:1.04084"
       d="M 3.9896931,28.027881 27.914697,3.9884551"
       id="path9" />
    <path
       style="fill:none;fill-opacity:1;stroke:#000000"
       d="M 3.918083,4.0300282 27.874362,28.04228"
       id="path10" />
  </g>
</svg>
